# Blender v3.5.1 OBJ File: 'house.blend'
# www.blender.org
mtllib house.mtl
o Plane
v -100.000000 0.000000 100.000000
v 100.000000 0.000000 100.000000
v -100.000000 0.000000 -100.000000
v 100.000000 0.000000 -100.000000
vt 0.000000 0.000000
vt 1.000000 0.000000
vt 1.000000 1.000000
vt 0.000000 1.000000
vn 0.0000 1.0000 0.0000
usemtl Grass
s off
f 1/1/1 2/2/1 4/3/1 3/4/1
o Leaves_Cone.001
v 0.000000 1.286876 -1.000000
v 1.000000 1.286876 0.000000
v 0.000000 1.286876 1.000000
v -1.000000 1.286876 0.000000
v 0.000000 3.286876 0.000000
v -0.707107 2.091066 -0.707107
v 0.707107 2.091066 -0.707107
v 0.707107 2.091066 0.707107
v -0.707107 2.091066 0.707107
v 0.000000 4.091066 0.000000
vt 0.250000 0.490000
vt 0.250000 0.250000
vt 0.490000 0.250000
vt 0.250000 0.010000
vt 0.750000 0.490000
vt 0.990000 0.250000
vt 0.750000 0.010000
vt 0.510000 0.250000
vt 0.010000 0.250000
vt 0.250000 0.490000
vt 0.250000 0.250000
vt 0.490000 0.250000
vt 0.250000 0.010000
vt 0.010000 0.250000
vn 0.6667 0.3333 -0.6667
vn 0.6667 0.3333 0.6667
vn 0.0000 -1.0000 0.0000
vn -0.6667 0.3333 0.6667
vn -0.6667 0.3333 -0.6667
vn 0.0000 0.3333 -0.9428
vn 0.9428 0.3333 0.0000
vn 0.0000 0.3333 0.9428
vn -0.9428 0.3333 0.0000
usemtl Leaves
s off
f 5/5/2 9/6/2 6/7/2
f 6/7/3 9/6/3 7/8/3
f 5/9/4 6/10/4 7/11/4 8/12/4
f 7/8/5 9/6/5 8/13/5
f 8/13/6 9/6/6 5/5/6
f 10/14/7 14/15/7 11/16/7
f 11/16/8 14/15/8 12/17/8
f 12/17/9 14/15/9 13/18/9
f 13/18/10 14/15/10 10/14/10
o Trunk_Cylinder
v 0.000000 -0.313415 0.286865
v 0.000000 1.686585 0.286865
v -0.272824 -0.313415 0.088646
v -0.272824 1.686585 0.088646
v -0.168615 -0.313415 -0.232078
v -0.168615 1.686585 -0.232078
v 0.168615 -0.313415 -0.232078
v 0.168615 1.686585 -0.232078
v 0.272824 -0.313415 0.088646
v 0.272824 1.686585 0.088646
vt 1.000000 0.500000
vt 1.000000 1.000000
vt 0.800000 1.000000
vt 0.800000 0.500000
vt 0.600000 1.000000
vt 0.600000 0.500000
vt 0.400000 1.000000
vt 0.400000 0.500000
vt 0.478254 0.324164
vt 0.250000 0.490000
vt 0.021746 0.324164
vt 0.108932 0.055836
vt 0.391068 0.055836
vt 0.200000 1.000000
vt 0.200000 0.500000
vt 0.000000 1.000000
vt 0.000000 0.500000
vt 0.750000 0.490000
vt 0.978254 0.324164
vt 0.891068 0.055836
vt 0.608932 0.055836
vt 0.521746 0.324164
vn -0.5878 0.0000 0.8090
vn -0.9511 0.0000 -0.3090
vn 0.0000 0.0000 -1.0000
vn 0.0000 1.0000 -0.0000
vn 0.9511 0.0000 -0.3090
vn 0.5878 0.0000 0.8090
vn 0.0000 -1.0000 0.0000
usemtl Wood
s off
f 15/19/11 16/20/11 18/21/11 17/22/11
f 17/22/12 18/21/12 20/23/12 19/24/12
f 19/24/13 20/23/13 22/25/13 21/26/13
f 18/27/14 16/28/14 24/29/14 22/30/14 20/31/14
f 21/26/15 22/25/15 24/32/15 23/33/15
f 23/33/16 24/32/16 16/34/16 15/35/16
f 15/36/17 17/37/17 19/38/17 21/39/17 23/40/17
o Cube_Cube.002
v -5.017261 -0.094104 1.270487
v -5.017261 4.268465 1.270487
v -5.017261 -0.094104 3.122206
v -5.017261 4.268465 3.122206
v -11.789155 -0.292733 -1.189601
v -11.789155 5.522952 -1.189601
v -11.789155 -0.292733 5.582294
v -11.789155 5.522952 5.582294
v -5.017261 -0.292733 5.582294
v -5.017261 -0.292733 -1.189601
v -5.017261 5.522952 -1.189601
v -5.017261 5.522952 5.582294
v -5.635726 -0.094104 3.122206
v -5.635726 -0.094104 1.270487
v -5.635726 4.268465 1.270487
v -5.635726 4.268465 3.122206
vt 0.406233 0.090820
vt 0.593767 0.090820
vt 0.593767 0.159180
vt 0.406233 0.159180
vt 0.593767 0.090820
vt 0.593767 0.159180
vt 0.375000 0.250000
vt 0.625000 0.250000
vt 0.625000 0.500000
vt 0.375000 0.500000
vt 0.625000 0.750000
vt 0.375000 0.750000
vt 0.625000 1.000000
vt 0.375000 1.000000
vt 0.125000 0.500000
vt 0.125000 0.750000
vt 0.875000 0.500000
vt 0.875000 0.750000
vt 0.406233 0.090820
vt 0.406233 0.159180
vt 0.375000 0.000000
vt 0.625000 0.000000
vn 1.0000 0.0000 0.0000
vn 0.0000 -1.0000 0.0000
vn 0.0000 0.0000 1.0000
vn -1.0000 0.0000 0.0000
vn 0.0000 0.0000 -1.0000
vn 0.0000 1.0000 0.0000
usemtl Wood
s off
f 38/41/18 39/42/18 40/43/18 37/44/18
usemtl House
f 26/45/19 28/46/19 40/43/19 39/42/19
f 33/47/20 36/48/20 32/49/20 31/50/20
f 31/50/21 32/49/21 30/51/21 29/52/21
f 29/52/22 30/51/22 35/53/22 34/54/22
f 33/55/19 31/50/19 29/52/19 34/56/19
f 32/49/23 36/57/23 35/58/23 30/51/23
f 25/59/18 27/60/18 33/47/18 34/61/18
f 26/45/18 25/59/18 34/61/18 35/62/18
f 28/46/18 26/45/18 35/62/18 36/48/18
f 27/60/18 28/46/18 36/48/18 33/47/18
f 27/60/23 25/59/23 38/41/23 37/44/23
f 28/46/22 27/60/22 37/44/22 40/43/22
f 25/59/20 26/45/20 39/42/20 38/41/20
o Cone_Cone.003
v -12.548352 5.201712 -2.146237
v -3.617930 5.201712 -2.146237
v -3.617930 5.201712 6.784184
v -12.548352 5.201712 6.784184
v -8.083141 9.553680 2.318974
vt 0.250000 0.490000
vt 0.250000 0.250000
vt 0.490000 0.250000
vt 0.250000 0.010000
vt 0.750000 0.490000
vt 0.990000 0.250000
vt 0.750000 0.010000
vt 0.510000 0.250000
vt 0.010000 0.250000
vn 0.0000 0.7161 -0.6980
vn 0.6980 0.7161 0.0000
vn 0.0000 -1.0000 0.0000
vn 0.0000 0.7161 0.6980
vn -0.6980 0.7161 0.0000
usemtl Brick
s off
f 41/63/24 45/64/24 42/65/24
f 42/65/25 45/64/25 43/66/25
f 41/67/26 42/68/26 43/69/26 44/70/26
f 43/66/27 45/64/27 44/71/27
f 44/71/28 45/64/28 41/63/28
