# Blender v3.5.0 OBJ File: 'Test_1.blend'
# www.blender.org
mtllib test1.mtl
o Plane_Plane.001
v -3.164818 -3.164818 10.000000
v 3.164818 -3.164818 10.000000
v -3.164818 3.164818 10.000000
v 3.164818 3.164818 10.000000
vt 0.000000 0.000000
vt 1.000000 0.000000
vt 1.000000 1.000000
vt 0.000000 1.000000
vn 0.0000 0.0000 1.0000
usemtl Material.006
s off
f 1/1/1 2/2/1 4/3/1 3/4/1
o Plane.001_Plane.002
v -4.926022 -4.926022 -15.000000
v 4.926022 -4.926022 -15.000000
v -4.926022 4.926022 -15.000000
v 4.926022 4.926022 -15.000000
vt 0.000000 0.000000
vt 1.000000 0.000000
vt 1.000000 1.000000
vt 0.000000 1.000000
vn 0.0000 0.0000 1.0000
usemtl Material.005
s off
f 5/5/2 6/6/2 8/7/2 7/8/2
o Plane.003_Plane.004
v -3.015948 -3.015948 -10.000000
v 3.015948 -3.015948 -10.000000
v -3.015948 3.015948 -10.000000
v 3.015948 3.015948 -10.000000
vt 0.000000 0.000000
vt 1.000000 0.000000
vt 1.000000 1.000000
vt 0.000000 1.000000
vn 0.0000 0.0000 1.0000
usemtl Material
s off
f 9/9/3 10/10/3 12/11/3 11/12/3
