# Blender v3.3.1 OBJ File: 'untitled.blend'
# www.blender.org
mtllib cone.mtl
o Cone
v 0.000000 -1.000000 -1.000000
v 1.000000 -1.000000 0.000000
v 0.000000 -1.000000 1.000000
v -1.000000 -1.000000 0.000000
v 0.000000 1.000000 0.000000
vt 0.250000 0.490000
vt 0.250000 0.250000
vt 0.490000 0.250000
vt 0.250000 0.010000
vt 0.750000 0.490000
vt 0.990000 0.250000
vt 0.750000 0.010000
vt 0.510000 0.250000
vt 0.010000 0.250000
vn 0.6667 0.3333 -0.6667
vn 0.6667 0.3333 0.6667
vn 0.0000 -1.0000 0.0000
vn -0.6667 0.3333 0.6667
vn -0.6667 0.3333 -0.6667
usemtl Material.001
s off
f 1/1/1 5/2/1 2/3/1
f 2/3/2 5/2/2 3/4/2
f 1/5/3 2/6/3 3/7/3 4/8/3
f 3/4/4 5/2/4 4/9/4
f 4/9/5 5/2/5 1/1/5
o Cube_Cube.001
v -0.193074 -7.659059 -0.028913
v -0.193074 7.659059 -0.028913
v -0.193074 -7.659059 0.028913
v -0.193074 7.659059 0.028913
v 0.193074 -7.659059 -0.028913
v 0.193074 7.659059 -0.028913
v 0.193074 -7.659059 0.028913
v 0.193074 7.659059 0.028913
vt 0.375000 0.000000
vt 0.375000 0.250000
vt 0.625000 0.250000
vt 0.625000 0.000000
vt 0.375000 0.500000
vt 0.625000 0.500000
vt 0.375000 0.750000
vt 0.625000 0.750000
vt 0.375000 1.000000
vt 0.625000 1.000000
vt 0.125000 0.500000
vt 0.125000 0.750000
vt 0.875000 0.750000
vt 0.875000 0.500000
vn -1.0000 0.0000 0.0000
vn 0.0000 0.0000 1.0000
vn 1.0000 0.0000 0.0000
vn 0.0000 0.0000 -1.0000
vn 0.0000 -1.0000 0.0000
vn 0.0000 1.0000 0.0000
usemtl Material.002
s off
f 6/10/6 8/11/6 9/12/6 7/13/6
f 8/11/7 12/14/7 13/15/7 9/12/7
f 12/14/8 10/16/8 11/17/8 13/15/8
f 10/16/9 6/18/9 7/19/9 11/17/9
f 8/20/10 6/21/10 10/16/10 12/14/10
f 13/15/11 11/17/11 7/22/11 9/23/11
o Cube.001_Cube.002
v -0.594017 1.662434 1.278753
v -0.594017 2.850468 1.278753
v -0.158813 2.097638 0.890488
v -0.158813 2.415263 0.890488
v 0.594017 1.662434 1.278753
v 0.594017 2.850468 1.278753
v 0.158813 2.097638 0.890488
v 0.158813 2.415263 0.890488
v -0.594017 1.662434 1.661547
v -0.594017 2.850468 1.661547
v 0.594017 2.850468 1.661547
v 0.594017 1.662434 1.661547
v -0.452485 1.803966 1.661547
v -0.452485 2.708935 1.661547
v 0.452485 2.708935 1.661547
v 0.452485 1.803966 1.661547
v -0.594017 1.662434 1.661547
v -0.594017 2.850468 1.661547
v 0.594017 2.850468 1.661547
v 0.594017 1.662434 1.661547
v -0.588890 1.667560 1.661547
v -0.588890 2.845341 1.661547
v 0.588890 2.845341 1.661547
v 0.588890 1.667560 1.661547
v -0.452485 1.803966 3.489018
v -0.452485 2.708935 3.489018
v 0.452485 2.708935 3.489018
v 0.452485 1.803966 3.489018
vt 0.375000 0.000000
vt 0.625000 0.000000
vt 0.625000 0.250000
vt 0.375000 0.250000
vt 0.625000 0.500000
vt 0.375000 0.500000
vt 0.625000 0.750000
vt 0.375000 0.750000
vt 0.875000 0.750000
vt 0.875000 0.750000
vt 0.625000 0.750000
vt 0.125000 0.500000
vt 0.125000 0.750000
vt 0.875000 0.500000
vt 0.125000 0.750000
vt 0.375000 0.750000
vt 0.375000 0.750000
vt 0.125000 0.750000
vt 0.375000 0.000000
vt 0.625000 0.000000
vt 0.595217 0.779783
vt 0.595217 0.970217
vt 0.595217 0.970217
vt 0.595217 0.779783
vt 0.000000 0.000000
vt 0.000000 0.000000
vt 0.000000 0.000000
vt 0.000000 0.000000
vt 0.875000 0.750000
vt 0.625000 0.750000
vt 0.000000 0.000000
vt 0.000000 0.000000
vt 0.000000 0.000000
vt 0.000000 0.000000
vt 0.376079 0.998921
vt 0.623921 0.998921
vt 0.625000 1.000000
vt 0.375000 1.000000
vt 0.623921 0.751079
vt 0.376079 0.751079
vt 0.404783 0.970217
vt 0.404783 0.779783
vt 0.404783 0.779783
vt 0.404783 0.970217
vn -0.6657 0.0000 -0.7462
vn 0.0000 0.0000 -1.0000
vn 0.6657 0.0000 -0.7462
vn 0.0000 1.0000 0.0000
vn 0.0000 -0.6657 -0.7462
vn 0.0000 0.6657 -0.7462
vn -0.3530 0.2040 -0.9131
vn 0.2953 0.0000 0.9554
vn 0.0000 0.0000 1.0000
vn 1.0000 0.0000 0.0000
vn -1.0000 0.0000 0.0000
vn 0.0000 -1.0000 0.0000
usemtl Material.003
s off
f 14/24/12 15/25/12 17/26/12 16/27/12
f 16/27/13 17/26/13 21/28/13 20/29/13
f 20/29/14 21/28/14 19/30/14 18/31/14
f 19/30/15 15/32/15 23/33/15 24/34/15
f 16/35/16 20/29/16 18/31/16 14/36/16
f 21/28/17 17/37/17 15/32/17 19/30/17
f 14/24/18 15/25/18 19/30/18 17/26/18 21/28/18 20/29/18 18/31/18 16/27/18
f 15/25/19 14/24/19 18/31/19 16/27/19 20/29/19 21/28/19 17/26/19 19/30/19
f 22/38/20 25/39/20 33/40/20 30/41/20
f 18/31/21 19/30/21 24/34/21 25/39/21
f 15/25/22 14/24/22 22/42/22 23/43/22
f 14/36/23 18/31/23 25/39/23 22/38/23
f 28/44/15 27/45/15 39/46/15 40/47/15
f 23/48/20 22/49/20 30/50/20 31/51/20
f 24/34/20 23/33/20 31/52/20 32/53/20
f 25/54/20 24/55/20 32/56/20 33/57/20
f 34/58/20 35/59/20 31/60/20 30/61/20
f 36/62/20 37/63/20 33/40/20 32/53/20
f 37/63/20 34/58/20 30/61/20 33/40/20
f 35/59/20 36/62/20 32/53/20 31/60/20
f 26/64/20 27/45/20 35/59/20 34/58/20
f 28/44/20 29/65/20 37/63/20 36/62/20
f 29/65/20 26/64/20 34/58/20 37/63/20
f 27/45/20 28/44/20 36/62/20 35/59/20
f 41/66/20 40/47/20 39/46/20 38/67/20
f 29/65/21 28/44/21 40/47/21 41/66/21
f 26/64/23 29/65/23 41/66/23 38/67/23
f 27/45/22 26/64/22 38/67/22 39/46/22
o Torus.001
v 1.250000 1.658130 0.000000
v 1.216506 1.783130 0.000000
v 1.125000 1.874636 0.000000
v 1.000000 1.908130 0.000000
v 0.875000 1.874636 0.000000
v 0.783494 1.783130 0.000000
v 0.750000 1.658130 0.000000
v 0.783494 1.533130 0.000000
v 0.875000 1.441624 0.000000
v 1.000000 1.408130 0.000000
v 1.125000 1.441624 0.000000
v 1.216506 1.533130 0.000000
v 0.625000 1.658130 -1.082532
v 0.608253 1.783130 -1.053525
v 0.562500 1.874636 -0.974279
v 0.500000 1.908130 -0.866025
v 0.437500 1.874636 -0.757772
v 0.391747 1.783130 -0.678525
v 0.375000 1.658130 -0.649519
v 0.391747 1.533130 -0.678525
v 0.437500 1.441624 -0.757772
v 0.500000 1.408130 -0.866025
v 0.562500 1.441624 -0.974279
v 0.608253 1.533130 -1.053525
v -0.625000 1.658130 -1.082532
v -0.608253 1.783130 -1.053526
v -0.562500 1.874636 -0.974279
v -0.500000 1.908130 -0.866026
v -0.437500 1.874636 -0.757772
v -0.391747 1.783130 -0.678525
v -0.375000 1.658130 -0.649519
v -0.391747 1.533130 -0.678525
v -0.437500 1.441624 -0.757772
v -0.500000 1.408130 -0.866026
v -0.562500 1.441624 -0.974279
v -0.608253 1.533130 -1.053526
v -1.250000 1.658130 -0.000000
v -1.216506 1.783130 -0.000000
v -1.125000 1.874636 -0.000000
v -1.000000 1.908130 -0.000000
v -0.875000 1.874636 -0.000000
v -0.783494 1.783130 -0.000000
v -0.750000 1.658130 -0.000000
v -0.783494 1.533130 -0.000000
v -0.875000 1.441624 -0.000000
v -1.000000 1.408130 -0.000000
v -1.125000 1.441624 -0.000000
v -1.216506 1.533130 -0.000000
v -0.625000 1.658130 1.082532
v -0.608253 1.783130 1.053526
v -0.562500 1.874636 0.974279
v -0.500000 1.908130 0.866026
v -0.437500 1.874636 0.757772
v -0.391747 1.783130 0.678525
v -0.375000 1.658130 0.649519
v -0.391747 1.533130 0.678525
v -0.437500 1.441624 0.757772
v -0.500000 1.408130 0.866026
v -0.562500 1.441624 0.974279
v -0.608253 1.533130 1.053526
v 0.625000 1.658130 1.082532
v 0.608253 1.783130 1.053525
v 0.562500 1.874636 0.974279
v 0.500000 1.908130 0.866025
v 0.437500 1.874636 0.757772
v 0.391747 1.783130 0.678525
v 0.375000 1.658130 0.649519
v 0.391747 1.533130 0.678525
v 0.437500 1.441624 0.757772
v 0.500000 1.408130 0.866025
v 0.562500 1.441624 0.974279
v 0.608253 1.533130 1.053525
vt 0.500000 0.500000
vt 0.666667 0.500000
vt 0.666667 0.583333
vt 0.500000 0.583333
vt 0.666667 0.666667
vt 0.500000 0.666667
vt 0.666667 0.750000
vt 0.500000 0.750000
vt 0.666667 0.833333
vt 0.500000 0.833333
vt 0.666667 0.916667
vt 0.500000 0.916667
vt 0.666667 1.000000
vt 0.500000 1.000000
vt 0.500000 0.000000
vt 0.666667 0.000000
vt 0.666667 0.083333
vt 0.500000 0.083333
vt 0.666667 0.166667
vt 0.500000 0.166667
vt 0.666667 0.250000
vt 0.500000 0.250000
vt 0.666667 0.333333
vt 0.500000 0.333333
vt 0.666667 0.416667
vt 0.500000 0.416667
vt 0.833333 0.500000
vt 0.833333 0.583333
vt 0.833333 0.666667
vt 0.833333 0.750000
vt 0.833333 0.833333
vt 0.833333 0.916667
vt 0.833333 1.000000
vt 0.833333 0.000000
vt 0.833333 0.083333
vt 0.833333 0.166667
vt 0.833333 0.250000
vt 0.833333 0.333333
vt 0.833333 0.416667
vt 1.000000 0.500000
vt 1.000000 0.583333
vt 1.000000 0.666667
vt 1.000000 0.750000
vt 1.000000 0.833333
vt 1.000000 0.916667
vt 1.000000 1.000000
vt 1.000000 0.000000
vt 1.000000 0.083333
vt 1.000000 0.166667
vt 1.000000 0.250000
vt 1.000000 0.333333
vt 1.000000 0.416667
vt -0.000000 0.500000
vt 0.166667 0.500000
vt 0.166667 0.583333
vt -0.000000 0.583333
vt 0.166667 0.666667
vt -0.000000 0.666667
vt 0.166667 0.750000
vt -0.000000 0.750000
vt 0.166667 0.833333
vt -0.000000 0.833333
vt 0.166667 0.916667
vt -0.000000 0.916667
vt 0.166667 1.000000
vt -0.000000 1.000000
vt -0.000000 0.000000
vt 0.166667 0.000000
vt 0.166667 0.083333
vt -0.000000 0.083333
vt 0.166667 0.166667
vt -0.000000 0.166667
vt 0.166667 0.250000
vt -0.000000 0.250000
vt 0.166667 0.333333
vt -0.000000 0.333333
vt 0.166667 0.416667
vt -0.000000 0.416667
vt 0.333333 0.500000
vt 0.333333 0.583333
vt 0.333333 0.666667
vt 0.333333 0.750000
vt 0.333333 0.833333
vt 0.333333 0.916667
vt 0.333333 1.000000
vt 0.333333 0.000000
vt 0.333333 0.083333
vt 0.333333 0.166667
vt 0.333333 0.250000
vt 0.333333 0.333333
vt 0.333333 0.416667
vn 0.8436 0.2260 -0.4871
vn 0.6547 0.6547 -0.3780
vn 0.2560 0.9553 -0.1478
vn -0.2560 0.9553 0.1478
vn -0.6547 0.6547 0.3780
vn -0.8436 0.2260 0.4871
vn -0.8436 -0.2260 0.4871
vn -0.6547 -0.6547 0.3780
vn -0.2560 -0.9553 0.1478
vn 0.2560 -0.9553 -0.1478
vn 0.6547 -0.6547 -0.3780
vn 0.8436 -0.2260 -0.4871
vn 0.0000 0.2260 -0.9741
vn 0.0000 0.6547 -0.7559
vn 0.0000 0.9553 -0.2956
vn -0.0000 0.9553 0.2956
vn -0.0000 0.6547 0.7559
vn -0.0000 0.2260 0.9741
vn -0.0000 -0.2260 0.9741
vn -0.0000 -0.6547 0.7559
vn -0.0000 -0.9553 0.2956
vn 0.0000 -0.9553 -0.2956
vn 0.0000 -0.6547 -0.7559
vn 0.0000 -0.2260 -0.9741
vn -0.8436 0.2260 -0.4871
vn -0.6547 0.6547 -0.3780
vn -0.2560 0.9553 -0.1478
vn 0.2560 0.9553 0.1478
vn 0.6547 0.6547 0.3780
vn 0.8436 0.2260 0.4871
vn 0.8436 -0.2260 0.4871
vn 0.6547 -0.6547 0.3780
vn 0.2560 -0.9553 0.1478
vn -0.2560 -0.9553 -0.1478
vn -0.6547 -0.6547 -0.3780
vn -0.8436 -0.2260 -0.4871
usemtl Material.004
s off
f 42/68/24 54/69/24 55/70/24 43/71/24
f 43/71/25 55/70/25 56/72/25 44/73/25
f 44/73/26 56/72/26 57/74/26 45/75/26
f 45/75/27 57/74/27 58/76/27 46/77/27
f 46/77/28 58/76/28 59/78/28 47/79/28
f 47/79/29 59/78/29 60/80/29 48/81/29
f 48/82/30 60/83/30 61/84/30 49/85/30
f 49/85/31 61/84/31 62/86/31 50/87/31
f 50/87/32 62/86/32 63/88/32 51/89/32
f 51/89/33 63/88/33 64/90/33 52/91/33
f 52/91/34 64/90/34 65/92/34 53/93/34
f 53/93/35 65/92/35 54/69/35 42/68/35
f 54/69/36 66/94/36 67/95/36 55/70/36
f 55/70/37 67/95/37 68/96/37 56/72/37
f 56/72/38 68/96/38 69/97/38 57/74/38
f 57/74/39 69/97/39 70/98/39 58/76/39
f 58/76/40 70/98/40 71/99/40 59/78/40
f 59/78/41 71/99/41 72/100/41 60/80/41
f 60/83/42 72/101/42 73/102/42 61/84/42
f 61/84/43 73/102/43 74/103/43 62/86/43
f 62/86/44 74/103/44 75/104/44 63/88/44
f 63/88/45 75/104/45 76/105/45 64/90/45
f 64/90/46 76/105/46 77/106/46 65/92/46
f 65/92/47 77/106/47 66/94/47 54/69/47
f 66/94/48 78/107/48 79/108/48 67/95/48
f 67/95/49 79/108/49 80/109/49 68/96/49
f 68/96/50 80/109/50 81/110/50 69/97/50
f 69/97/51 81/110/51 82/111/51 70/98/51
f 70/98/52 82/111/52 83/112/52 71/99/52
f 71/99/53 83/112/53 84/113/53 72/100/53
f 72/101/54 84/114/54 85/115/54 73/102/54
f 73/102/55 85/115/55 86/116/55 74/103/55
f 74/103/56 86/116/56 87/117/56 75/104/56
f 75/104/57 87/117/57 88/118/57 76/105/57
f 76/105/58 88/118/58 89/119/58 77/106/58
f 77/106/59 89/119/59 78/107/59 66/94/59
f 78/120/29 90/121/29 91/122/29 79/123/29
f 79/123/28 91/122/28 92/124/28 80/125/28
f 80/125/27 92/124/27 93/126/27 81/127/27
f 81/127/26 93/126/26 94/128/26 82/129/26
f 82/129/25 94/128/25 95/130/25 83/131/25
f 83/131/24 95/130/24 96/132/24 84/133/24
f 84/134/35 96/135/35 97/136/35 85/137/35
f 85/137/34 97/136/34 98/138/34 86/139/34
f 86/139/33 98/138/33 99/140/33 87/141/33
f 87/141/32 99/140/32 100/142/32 88/143/32
f 88/143/31 100/142/31 101/144/31 89/145/31
f 89/145/30 101/144/30 90/121/30 78/120/30
f 90/121/41 102/146/41 103/147/41 91/122/41
f 91/122/40 103/147/40 104/148/40 92/124/40
f 92/124/39 104/148/39 105/149/39 93/126/39
f 93/126/38 105/149/38 106/150/38 94/128/38
f 94/128/37 106/150/37 107/151/37 95/130/37
f 95/130/36 107/151/36 108/152/36 96/132/36
f 96/135/47 108/153/47 109/154/47 97/136/47
f 97/136/46 109/154/46 110/155/46 98/138/46
f 98/138/45 110/155/45 111/156/45 99/140/45
f 99/140/44 111/156/44 112/157/44 100/142/44
f 100/142/43 112/157/43 113/158/43 101/144/43
f 101/144/42 113/158/42 102/146/42 90/121/42
f 102/146/53 42/68/53 43/71/53 103/147/53
f 103/147/52 43/71/52 44/73/52 104/148/52
f 104/148/51 44/73/51 45/75/51 105/149/51
f 105/149/50 45/75/50 46/77/50 106/150/50
f 106/150/49 46/77/49 47/79/49 107/151/49
f 107/151/48 47/79/48 48/81/48 108/152/48
f 108/153/59 48/82/59 49/85/59 109/154/59
f 109/154/58 49/85/58 50/87/58 110/155/58
f 110/155/57 50/87/57 51/89/57 111/156/57
f 111/156/56 51/89/56 52/91/56 112/157/56
f 112/157/55 52/91/55 53/93/55 113/158/55
f 113/158/54 53/93/54 42/68/54 102/146/54
