# Blender v3.5.1 OBJ File: 'monkey.blend'
# www.blender.org
mtllib monkey.mtl
o Plane
v -13.788240 0.000000 13.788240
v 13.788240 0.000000 13.788240
v -13.788240 0.000000 -13.788240
v 13.788240 0.000000 -13.788240
vt 0.000000 0.000000
vt 1.000000 0.000000
vt 1.000000 1.000000
vt 0.000000 1.000000
vn 0.0000 1.0000 0.0000
usemtl Material.002
s off
f 1/1/1 2/2/1 4/3/1 3/4/1
o Plane.001
v -3.132257 -1.103080 -0.088865
v -0.443470 -1.103080 -3.050354
v -3.132257 2.896920 -0.088864
v -0.443469 2.896920 -3.050354
vt 0.000000 0.000000
vt 1.000000 0.000000
vt 1.000000 1.000000
vt 0.000000 1.000000
vn 0.7404 -0.0000 0.6722
usemtl mirror
s off
f 5/5/2 6/6/2 8/7/2 7/8/2
o Cube_Cube.001
v -0.658418 0.230342 0.658418
v -0.658418 1.547179 0.658418
v -0.658418 0.230342 -0.658418
v -0.658418 1.547179 -0.658418
v 0.658418 0.230342 0.658418
v 0.658418 1.547179 0.658418
v 0.658418 0.230342 -0.658418
v 0.658418 1.547179 -0.658418
vt 0.375000 0.000000
vt 0.625000 0.000000
vt 0.625000 0.250000
vt 0.375000 0.250000
vt 0.625000 0.500000
vt 0.375000 0.500000
vt 0.625000 0.750000
vt 0.375000 0.750000
vt 0.625000 1.000000
vt 0.375000 1.000000
vt 0.125000 0.500000
vt 0.125000 0.750000
vt 0.875000 0.500000
vt 0.875000 0.750000
vn -1.0000 0.0000 0.0000
vn 0.0000 0.0000 -1.0000
vn 1.0000 0.0000 0.0000
vn 0.0000 0.0000 1.0000
vn 0.0000 -1.0000 0.0000
vn 0.0000 1.0000 0.0000
usemtl Material.001
s off
f 9/9/3 10/10/3 12/11/3 11/12/3
f 11/12/4 12/11/4 16/13/4 15/14/4
f 15/14/5 16/13/5 14/15/5 13/16/5
f 13/16/6 14/15/6 10/17/6 9/18/6
f 11/19/7 15/14/7 13/16/7 9/20/7
f 16/13/8 12/21/8 10/22/8 14/15/8
