# Blender v3.5.1 OBJ File: 'tree.blend'
# www.blender.org
mtllib tree.mtl
o Circle.001
v -0.014955 0.858195 -0.597288
v -0.491448 0.936417 -0.375792
v -0.740121 0.765505 -0.067361
v -0.615347 0.891732 0.457243
v -0.089271 0.751492 0.623454
v 0.431338 0.750960 0.441494
v 0.591813 0.927974 0.001269
v 0.393867 0.797022 -0.441886
v -0.089301 1.250414 -0.307263
v -0.303241 1.212534 -0.217268
v -0.391858 1.196843 -0.000000
v -0.303241 1.212534 0.217268
v -0.089301 1.250414 0.307263
v 0.124639 1.288295 0.217268
v 0.213256 1.303985 -0.000000
v 0.124639 1.288295 -0.217268
v -0.090411 1.304433 -0.571492
v -0.445857 1.279514 -0.372990
v -0.660197 1.111993 -0.027493
v -0.488273 1.233987 0.403972
v -0.099243 1.206101 0.572591
v 0.307451 1.374879 0.403972
v 0.485239 1.304273 -0.002274
v 0.307451 1.374878 -0.404129
v -0.089301 1.603161 -0.232243
v -0.255832 1.614612 -0.164220
v -0.324812 1.642257 -0.000000
v -0.255832 1.669902 0.164220
v -0.089301 1.681353 0.232242
v 0.077230 1.669902 0.164220
v 0.146209 1.642257 -0.000000
v 0.077230 1.614612 -0.164220
v -0.080463 1.610841 -0.404778
v -0.392396 1.632291 -0.277364
v -0.558576 1.599128 0.017560
v -0.392396 1.735856 0.337845
v -0.102462 1.678112 0.494950
v 0.231469 1.735856 0.337845
v 0.377905 1.611619 0.049620
v 0.197592 1.692471 -0.245564
v -0.095614 1.975958 -0.186520
v -0.230918 2.015380 -0.128660
v -0.281352 2.056329 0.009140
v -0.217373 2.074817 0.146157
v -0.076457 2.060016 0.202130
v 0.058847 2.020595 0.144270
v 0.109281 1.979646 0.006470
v 0.045301 1.961157 -0.130548
v -0.032039 2.306589 -0.080377
v -0.105520 2.325667 -0.048931
v -0.135957 2.333570 0.026986
v -0.105520 2.325667 0.102903
v -0.032039 2.306589 0.134349
v 0.041442 2.287510 0.102903
v 0.071878 2.279608 0.026986
v 0.041442 2.287510 -0.048931
v 0.015084 2.634647 0.100682
v -0.089301 0.852654 -0.156846
v -0.200208 0.852654 -0.110907
v -0.246147 0.852654 0.000000
v -0.200208 0.852654 0.110907
v -0.089301 0.852654 0.156846
v 0.021606 0.852654 0.110907
v 0.067545 0.852654 -0.000000
v 0.021606 0.852654 -0.110907
v -0.094967 0.657692 -0.145733
v -0.218515 0.678863 -0.093812
v -0.269690 0.687633 0.031536
v -0.218515 0.678863 0.156885
v -0.094967 0.657692 0.208806
v 0.028580 0.636521 0.156885
v 0.079755 0.627751 0.031536
v 0.028580 0.636521 -0.093812
v -0.087209 0.437889 -0.252460
v -0.240232 0.421153 -0.191325
v -0.303616 0.380750 -0.043733
v -0.240232 0.340346 0.103860
v -0.087209 0.323611 0.164995
v 0.065814 0.340346 0.103860
v 0.129199 0.380750 -0.043733
v 0.065814 0.421153 -0.191325
v -0.089301 0.040792 -0.298849
v -0.300619 0.040792 -0.211318
v -0.388150 0.040792 0.000000
v -0.300619 0.040792 0.211318
v -0.089301 0.040792 0.298849
v 0.122017 0.040792 0.211318
v 0.209548 0.040792 0.000000
v 0.122017 0.040792 -0.211318
vt 0.500000 1.000000
vt 0.853553 0.853553
vt 0.853553 0.853553
vt 0.500000 1.000000
vt 0.853553 0.146447
vt 0.500000 0.000000
vt 0.500000 0.000000
vt 0.853553 0.146447
vt 1.000000 0.500000
vt 0.853553 0.146447
vt 1.000000 0.500000
vt 0.500000 0.000000
vt 0.146447 0.146447
vt 0.146447 0.146447
vt 0.000000 0.500000
vt 0.146447 0.853553
vt 0.146447 0.853553
vt 0.000000 0.500000
vt 0.853553 0.853553
vt 1.000000 0.500000
vt 1.000000 0.500000
vt 0.853553 0.853553
vt 0.000000 0.500000
vt 0.146447 0.146447
vt 0.500000 1.000000
vt 0.146447 0.853553
vt 0.500000 1.000000
vt 0.853553 0.146447
vt 0.500000 0.000000
vt 0.146447 0.146447
vt 0.000000 0.500000
vt 0.146447 0.853553
vt 0.146447 0.853553
vt 0.500000 1.000000
vt 0.146447 0.853553
vt 0.000000 0.500000
vt 0.000000 0.500000
vt 0.146447 0.853553
vt 0.853553 0.853553
vt 0.500000 1.000000
vt 0.853553 0.853553
vt 0.853553 0.146447
vt 1.000000 0.500000
vt 1.000000 0.500000
vt 0.853553 0.146447
vt 0.146447 0.146447
vt 0.500000 0.000000
vt 0.500000 0.000000
vt 0.146447 0.146447
vt 0.000000 0.500000
vt 0.853553 0.853553
vt 0.500000 1.000000
vt 0.500000 1.000000
vt 0.853553 0.853553
vt 1.000000 0.500000
vt 0.853553 0.146447
vt 0.500000 0.000000
vt 0.146447 0.146447
vt 0.000000 0.500000
vt 0.146447 0.146447
vt 0.146447 0.146447
vt 0.000000 0.500000
vt 1.000000 0.500000
vt 0.853553 0.146447
vt 0.500000 0.000000
vt 0.146447 0.853553
vt 1.000000 0.500000
vt 0.853553 0.853553
vt 0.853553 0.853553
vt 1.000000 0.500000
vt 0.146447 0.853553
vt 0.500000 1.000000
vt 0.853553 0.146447
vt 0.500000 0.000000
vt 0.146447 0.146447
vt 0.500000 0.000000
vt 0.500000 0.000000
vt 0.146447 0.146447
vt 0.853553 0.146447
vt 0.000000 0.500000
vt 0.146447 0.853553
vt 0.500000 1.000000
vt 0.853553 0.853553
vt 0.500000 1.000000
vt 0.853553 0.853553
vt 0.000000 0.500000
vt 0.146447 0.853553
vt 1.000000 0.500000
vt 0.853553 0.146447
vt 0.853553 0.146447
vt 0.146447 0.146447
vt 0.146447 0.853553
vt 1.000000 0.500000
vt 0.500000 0.000000
vt 0.000000 0.500000
vt 0.500000 1.000000
vn 0.3797 -0.0621 -0.9230
vn 0.3743 -0.1147 0.9202
vn 0.9211 0.1059 0.3747
vn -0.3516 0.2616 0.8989
vn -0.9225 0.0592 -0.3814
vn 0.9249 -0.0017 -0.3802
vn 0.3927 0.2143 0.8944
vn -0.9039 0.1983 0.3789
vn -0.3883 -0.0452 -0.9204
vn 0.9161 0.1616 -0.3670
vn -0.9219 0.0025 0.3874
vn -0.3452 0.3776 -0.8592
vn 0.3919 0.4238 -0.8166
vn 0.9185 0.0540 0.3918
vn -0.3899 -0.1233 0.9126
vn -0.9115 0.1998 -0.3594
vn 0.8999 0.2903 -0.3254
vn 0.0000 -1.0000 0.0000
vn 0.3330 0.3872 0.8598
vn -0.8697 0.2913 0.3985
vn -0.3798 0.1090 -0.9186
vn 0.3798 0.1049 -0.9191
vn 0.8731 0.2807 0.3987
vn -0.3322 0.3913 0.8582
vn -0.9149 0.1720 -0.3653
vn -0.1646 -0.9836 -0.0739
vn 0.1462 -0.9611 -0.2342
vn 0.3203 0.5667 -0.7591
vn 0.6676 0.6072 0.4309
vn -0.1866 0.5993 0.7785
vn -0.7332 0.6343 -0.2453
vn 0.6690 0.6093 -0.4256
vn 0.2764 0.5074 0.8162
vn -0.7390 0.6683 0.0847
vn -0.3115 0.5656 -0.7636
vn 0.1569 0.7535 -0.6385
vn 0.1283 -0.9815 -0.1423
vn 0.3054 -0.9518 -0.0278
vn 0.1830 -0.9740 0.1332
vn -0.0293 -0.9631 -0.2675
vn 0.2499 -0.9484 -0.1949
vn 0.1299 -0.9813 0.1419
vn 0.0323 -0.9988 -0.0366
vn 0.0867 -0.9555 0.2821
vn 0.6963 0.6943 0.1816
vn -0.3083 0.5679 0.7632
vn -0.7834 0.5531 -0.2837
vn 0.6449 0.7301 -0.2257
vn 0.1471 0.6215 0.7695
vn -0.8247 0.5288 0.2007
vn -0.3509 0.6708 -0.6534
vn 0.7619 0.5435 -0.3523
vn -0.0884 -0.9949 -0.0488
vn 0.2855 -0.9428 -0.1724
vn -0.0769 -0.9557 0.2842
vn -0.1452 -0.9851 0.0918
vn 0.0633 -0.9978 0.0204
vn 0.1153 -0.9777 -0.1758
vn 0.1353 -0.9860 0.0980
vn -0.3189 0.3008 0.8988
vn 0.3124 0.6038 0.7334
vn -0.8189 0.5240 0.2343
vn -0.2836 0.4664 -0.8379
vn 0.3288 0.5061 -0.7973
vn 0.7961 0.5888 0.1396
vn -0.2769 0.5880 0.7600
vn -0.7831 0.4757 -0.4006
vn 0.4457 0.3826 -0.8093
vn -0.8034 0.4374 -0.4040
vn 0.9045 0.1260 -0.4073
vn 0.4269 0.1665 0.8889
vn -0.8356 0.4239 0.3494
vn -0.2862 0.3438 -0.8944
vn 0.3978 0.2185 -0.8911
vn 0.9379 0.1029 0.3314
vn 0.9283 0.0728 0.3646
vn -0.3569 0.1460 0.9226
vn -0.7918 0.4873 -0.3682
vn 0.9136 0.2175 -0.3436
vn 0.4011 0.0363 0.9153
vn -0.8606 0.3387 0.3803
vn -0.2299 0.4954 -0.8377
vn -0.1159 -0.9933 -0.0026
vn 0.0725 -0.9572 -0.2803
vn -0.1621 -0.9742 -0.1572
vn 0.1290 -0.9467 -0.2952
vn 0.0916 -0.9774 0.1907
vn -0.0762 -0.9750 -0.2089
vn 0.1031 -0.9805 0.1671
usemtl Material.005
s 1
f 58/1/1 65/2/1 73/3/1 66/4/1
f 71/5/2 70/6/2 78/7/2 79/8/2
f 64/9/3 63/10/3 71/5/3 72/11/3
f 62/12/4 61/13/4 69/14/4 70/6/4
f 60/15/5 59/16/5 67/17/5 68/18/5
f 65/2/6 64/9/6 72/11/6 73/3/6
f 63/10/7 62/12/7 70/6/7 71/5/7
f 61/13/8 60/15/8 68/18/8 69/14/8
f 59/16/9 58/1/9 66/4/9 67/17/9
f 81/19/10 80/20/10 88/21/10 89/22/10
f 69/14/11 68/18/11 76/23/11 77/24/11
f 67/17/12 66/4/12 74/25/12 75/26/12
f 66/4/13 73/3/13 81/19/13 74/25/13
f 72/11/14 71/5/14 79/8/14 80/20/14
f 70/6/15 69/14/15 77/24/15 78/7/15
f 68/18/16 67/17/16 75/26/16 76/23/16
f 73/3/17 72/11/17 80/20/17 81/19/17
f 82/27/18 89/22/18 88/21/18 87/28/18 86/29/18 85/30/18 84/31/18 83/32/18
f 79/8/19 78/7/19 86/29/19 87/28/19
f 77/24/20 76/23/20 84/31/20 85/30/20
f 75/26/21 74/25/21 82/27/21 83/32/21
f 74/25/22 81/19/22 89/22/22 82/27/22
f 80/20/23 79/8/23 87/28/23 88/21/23
f 78/7/24 77/24/24 85/30/24 86/29/24
f 76/23/25 75/26/25 83/32/25 84/31/25
usemtl Material.006
f 2/33/26 1/34/26 58/1/26 59/16/26
f 10/35/27 11/36/27 19/37/27 18/38/27
f 8/39/28 1/34/28 9/40/28 16/41/28
f 6/42/29 7/43/29 15/44/29 14/45/29
f 4/46/30 5/47/30 13/48/30 12/49/30
f 2/33/31 3/50/31 11/36/31 10/35/31
f 7/43/32 8/39/32 16/41/32 15/44/32
f 5/47/33 6/42/33 14/45/33 13/48/33
f 3/50/34 4/46/34 12/49/34 11/36/34
f 1/34/35 2/33/35 10/35/35 9/40/35
f 24/51/36 17/52/36 25/53/36 32/54/36
f 15/44/37 16/41/37 24/51/37 23/55/37
f 13/48/38 14/45/38 22/56/38 21/57/38
f 11/36/39 12/49/39 20/58/39 19/37/39
f 9/40/40 10/35/40 18/38/40 17/52/40
f 16/41/41 9/40/41 17/52/41 24/51/41
f 14/45/42 15/44/42 23/55/42 22/56/42
f 12/49/43 13/48/43 21/57/43 20/58/43
f 27/59/44 28/60/44 36/61/44 35/62/44
f 22/56/45 23/55/45 31/63/45 30/64/45
f 20/58/46 21/57/46 29/65/46 28/60/46
f 18/38/47 19/37/47 27/59/47 26/66/47
f 23/55/48 24/51/48 32/54/48 31/63/48
f 21/57/49 22/56/49 30/64/49 29/65/49
f 19/37/50 20/58/50 28/60/50 27/59/50
f 17/52/51 18/38/51 26/66/51 25/53/51
f 39/67/52 40/68/52 48/69/52 47/70/52
f 25/53/53 26/66/53 34/71/53 33/72/53
f 32/54/54 25/53/54 33/72/54 40/68/54
f 30/64/55 31/63/55 39/67/55 38/73/55
f 28/60/56 29/65/56 37/74/56 36/61/56
f 26/66/57 27/59/57 35/62/57 34/71/57
f 31/63/58 32/54/58 40/68/58 39/67/58
f 29/65/59 30/64/59 38/73/59 37/74/59
f 44/75/60 45/76/60 53/77/60 52/78/60
f 37/74/61 38/73/61 46/79/61 45/76/61
f 35/62/62 36/61/62 44/75/62 43/80/62
f 33/72/63 34/71/63 42/81/63 41/82/63
f 40/68/64 33/72/64 41/82/64 48/69/64
f 38/73/65 39/67/65 47/70/65 46/79/65
f 36/61/66 37/74/66 45/76/66 44/75/66
f 34/71/67 35/62/67 43/80/67 42/81/67
f 56/83/68 49/84/68 57/85/68
f 42/81/69 43/80/69 51/86/69 50/87/69
f 47/70/70 48/69/70 56/83/70 55/88/70
f 45/76/71 46/79/71 54/89/71 53/77/71
f 43/80/72 44/75/72 52/78/72 51/86/72
f 41/82/73 42/81/73 50/87/73 49/84/73
f 48/69/74 41/82/74 49/84/74 56/83/74
f 46/79/75 47/70/75 55/88/75 54/89/75
f 54/89/76 55/88/76 57/90/76
f 52/78/77 53/77/77 57/91/77
f 50/87/78 51/86/78 57/92/78
f 55/88/79 56/83/79 57/93/79
f 53/77/80 54/89/80 57/94/80
f 51/86/81 52/78/81 57/95/81
f 49/84/82 50/87/82 57/96/82
f 1/34/83 8/39/83 65/2/83 58/1/83
f 7/43/84 6/42/84 63/10/84 64/9/84
f 5/47/85 4/46/85 61/13/85 62/12/85
f 3/50/86 2/33/86 59/16/86 60/15/86
f 8/39/87 7/43/87 64/9/87 65/2/87
f 6/42/88 5/47/88 62/12/88 63/10/88
f 4/46/89 3/50/89 60/15/89 61/13/89
